<svg width="19" height="19" viewBox="0 0 19 19" fill="none" xmlns="http://www.w3.org/2000/svg">
<path fill-rule="evenodd" clip-rule="evenodd" d="M18.6585 16.461C18.0721 18.2431 15.7743 19.1323 14.1327 18.9841C11.8907 18.7814 9.45105 17.5921 7.59917 16.2824C4.87708 14.3571 2.32726 11.3793 0.841449 8.21905C-0.208626 5.986 -0.444228 3.23996 1.11758 1.2045C1.69519 0.45213 2.31966 0.0506114 3.25827 0.00374641C4.56041 -0.0595847 4.74281 0.685189 5.18995 1.84541C5.52309 2.71305 5.96769 3.59842 6.21596 4.49772C6.68083 6.17599 5.05568 6.24566 4.85048 7.61741C4.72255 8.48251 5.77135 9.64274 6.24509 10.2596C7.17357 11.4679 8.28951 12.5104 9.54859 13.3033C10.2693 13.758 11.4334 14.5775 12.2593 14.1253C13.531 13.4287 13.4107 11.2843 15.1891 12.0101C16.11 12.385 17.0017 12.9258 17.8808 13.3995C19.2399 14.1304 19.1766 14.8878 18.6585 16.461C19.0461 15.2855 18.2709 17.6364 18.6585 16.461Z" fill="#8E6E62"/>
</svg>
