<svg width="14" height="20" viewBox="0 0 14 20" fill="none" xmlns="http://www.w3.org/2000/svg">
<path fill-rule="evenodd" clip-rule="evenodd" d="M7 8.635C6.449 8.635 6 8.186 6 7.635C6 7.084 6.449 6.635 7 6.635C7.551 6.635 8 7.084 8 7.635C8 8.186 7.551 8.635 7 8.635ZM7 4.635C5.343 4.635 4 5.978 4 7.635C4 9.292 5.343 10.635 7 10.635C8.657 10.635 10 9.292 10 7.635C10 5.978 8.657 4.635 7 4.635ZM7 17C7 17 2 10 2 7C2 4.243 4.243 2 7 2C9.757 2 12 4.243 12 7C12 10 7 17 7 17ZM7 0C3.134 0 0 3.134 0 7C0 10.866 7 20 7 20C7 20 14 10.866 14 7C14 3.134 10.866 0 7 0Z" fill="#8E6E62"/>
</svg>
